<?xml version="1.0" standalone="no"?>
<!DOCTYPE svg PUBLIC "-//W3C//DTD SVG 20010904//EN"
 "http://www.w3.org/TR/2001/REC-SVG-20010904/DTD/svg10.dtd">
<svg version="1.0" xmlns="http://www.w3.org/2000/svg"
 width="512.000000pt" height="512.000000pt" viewBox="0 0 512.000000 512.000000"
 preserveAspectRatio="xMidYMid meet">

<g transform="translate(0.000000,512.000000) scale(0.100000,-0.100000)"
fill="#000000" stroke="none">
<path d="M1385 4065 c-74 -27 -116 -108 -95 -187 41 -150 259 -150 299 0 34
124 -83 231 -204 187z m110 -90 c50 -49 15 -135 -55 -135 -41 0 -80 39 -80 80
0 41 39 80 80 80 19 0 40 -9 55 -25z"/>
<path d="M1570 3765 l-23 -25 23 -25 23 -24 29 20 28 21 -21 29 c-25 35 -29
36 -59 4z"/>
<path d="M1675 3645 c-28 -23 -28 -23 -9 -49 23 -31 35 -32 62 -3 l21 22 -23
26 -22 26 -29 -22z"/>
<path d="M1785 3531 c-6 -6 -153 -11 -351 -13 l-341 -3 -40 -27 c-22 -15 -51
-44 -64 -65 l-24 -38 -3 -466 -3 -465 -102 -12 c-123 -15 -157 -15 -157 -2 0
16 -62 80 -94 97 -40 21 -132 21 -171 1 -34 -19 -77 -62 -95 -98 -18 -35 -17
-129 3 -166 49 -94 170 -137 262 -91 51 25 105 95 105 136 0 11 5 23 11 26 9
6 192 34 227 35 9 0 12 -92 12 -430 l0 -430 -148 0 c-102 0 -152 -4 -160 -12
-18 -18 -16 -212 4 -278 12 -39 29 -66 68 -106 92 -91 -69 -84 1836 -84 1905
0 1744 -7 1836 84 39 40 56 67 68 106 20 66 22 260 4 278 -8 8 -58 12 -160 12
l-148 0 0 270 c0 161 4 270 9 270 5 0 21 -4 35 -10 23 -8 26 -6 36 26 14 41
15 40 -27 49 -29 6 -33 4 -40 -22 -4 -15 -10 267 -13 628 l-5 655 -27 41 c-15
22 -44 51 -65 64 l-38 24 -1100 3 c-703 1 -1103 6 -1109 12 -12 12 -19 13 -31
1z m2257 -129 l33 -32 3 -601 2 -601 -25 5 c-21 4 -28 0 -36 -21 -13 -35 -6
-49 30 -57 l31 -7 0 -284 0 -284 -527 0 -528 0 33 20 c38 23 66 81 58 116 l-6
24 393 0 c292 0 396 3 405 12 9 9 12 72 12 221 0 135 4 224 12 250 10 32 10
41 0 45 -9 3 -12 126 -12 527 0 426 -2 525 -14 534 -19 16 -2673 16 -2692 0
-11 -9 -14 -83 -14 -399 l0 -387 -80 -10 -81 -9 3 452 3 452 25 27 c14 15 34
31 45 36 11 4 667 7 1457 6 l1438 -2 32 -33z m-202 -922 l0 -720 -387 0 -388
0 -111 194 c-73 127 -108 198 -102 204 5 5 8 20 6 33 -4 33 -39 36 -84 8 l-37
-22 -17 23 c-18 24 -18 24 35 76 160 157 162 406 5 564 -229 228 -615 103
-671 -218 -45 -256 189 -495 444 -453 34 6 71 13 83 16 15 5 25 0 38 -19 16
-26 16 -26 -16 -46 -18 -11 -36 -20 -39 -20 -11 0 -20 -32 -14 -51 3 -10 17
-19 32 -21 21 -2 38 -24 95 -123 39 -66 72 -126 75 -132 4 -10 -150 -13 -751
-13 l-756 0 0 329 0 328 33 5 c17 3 179 23 360 44 l327 39 0 38 0 39 -37 -6
c-21 -3 -171 -22 -333 -41 -162 -19 -307 -37 -322 -40 l-28 -4 0 354 0 355
1280 0 1280 0 0 -720z m-1228 372 c59 -26 127 -93 159 -157 35 -72 35 -198 0
-270 -32 -63 -93 -124 -156 -156 -41 -20 -65 -24 -135 -24 -100 0 -159 23
-225 90 -168 168 -99 457 127 531 59 19 171 13 230 -14z m-2032 -388 c67 -40
78 -130 22 -186 -77 -77 -202 -23 -202 87 0 53 62 115 115 115 20 0 49 -7 65
-16z m620 -408 c0 -284 3 -356 13 -365 10 -8 245 -12 822 -13 l808 -3 37 -60
c23 -39 48 -66 71 -77 33 -17 -6 -18 -938 -18 l-973 0 0 434 0 435 48 6 c26 3
54 8 62 9 54 12 50 36 50 -348z m1708 -176 c74 -127 132 -238 130 -247 -5 -24
-35 -40 -54 -28 -15 10 -274 447 -274 463 0 6 48 39 60 41 3 1 65 -103 138
-229z m-806 -487 c14 -28 42 -60 67 -78 l43 -30 388 0 388 0 43 30 c25 18 53
50 67 78 l25 47 640 0 639 0 -4 -93 c-4 -108 -25 -151 -91 -195 l-41 -27
-1706 0 -1706 0 -41 27 c-66 44 -87 87 -91 195 l-4 93 679 0 680 0 25 -47z
m928 39 c0 -5 -14 -21 -31 -38 l-30 -29 -369 0 -369 0 -30 29 c-17 17 -31 33
-31 38 0 4 194 8 430 8 237 0 430 -4 430 -8z"/>
<path d="M1875 3395 l-30 -25 28 -27 27 -28 25 25 25 25 -23 27 -22 27 -30
-24z"/>
<path d="M2078 3147 l-27 -22 24 -30 24 -30 28 28 28 27 -25 24 -25 25 -27
-22z"/>
<path d="M3547 3106 c-64 -24 -83 -47 -102 -129 l-11 -49 -244 -100 c-135 -55
-247 -102 -249 -103 -2 -2 1 -20 5 -39 l9 -34 256 105 257 105 42 -28 c108
-72 244 -2 244 126 0 109 -105 183 -207 146z m108 -91 c16 -15 25 -36 25 -55
0 -19 -9 -40 -25 -55 -15 -16 -36 -25 -55 -25 -19 0 -40 9 -55 25 -16 15 -25
36 -25 55 0 19 9 40 25 55 15 16 36 25 55 25 19 0 40 -9 55 -25z"/>
<path d="M2182 3028 c-26 -29 -27 -36 -6 -59 16 -18 18 -18 45 -2 35 21 35 25
6 58 l-22 26 -23 -23z"/>
<path d="M2954 2472 c-3 -15 -7 -32 -9 -39 -4 -11 52 -30 61 -21 2 3 7 18 10
35 5 27 3 31 -25 41 -29 10 -31 9 -37 -16z"/>
<path d="M3100 2438 c0 -7 -3 -23 -6 -34 -5 -17 1 -24 27 -33 18 -6 33 -10 34
-9 9 13 22 68 17 72 -4 2 -22 7 -39 11 -24 5 -33 3 -33 -7z"/>
<path d="M3250 2372 c-5 -20 -8 -37 -7 -38 1 -1 17 -5 34 -9 29 -6 34 -4 43
20 15 38 13 41 -25 52 -34 11 -35 11 -45 -25z"/>
<path d="M3403 2325 c-11 -34 -11 -35 25 -45 20 -5 37 -8 38 -7 1 1 5 17 9 34
6 29 4 34 -20 43 -38 15 -41 13 -52 -25z"/>
<path d="M3556 2279 c-7 -38 -8 -37 31 -45 27 -5 31 -3 42 27 13 38 13 38 -31
45 -33 6 -35 4 -42 -27z"/>
<path d="M2052 2227 c-23 -23 -42 -47 -42 -53 0 -6 10 -20 23 -32 l23 -22 43
44 43 44 -23 31 c-12 17 -23 31 -24 31 0 0 -20 -19 -43 -43z"/>
<path d="M3711 2239 c-6 -18 -11 -33 -11 -35 0 -1 14 -7 32 -13 35 -12 43 -8
52 31 5 23 2 27 -26 37 -17 6 -32 11 -34 11 -1 0 -7 -14 -13 -31z"/>
<path d="M1916 2091 c-13 -14 -30 -19 -66 -17 -61 1 -99 -25 -119 -81 -13 -36
-12 -43 5 -79 13 -26 32 -45 58 -58 36 -17 43 -18 79 -5 55 19 82 58 82 119 0
33 6 54 19 69 19 21 19 22 -4 46 -28 30 -32 30 -54 6z m-46 -106 c26 -32 -13
-81 -47 -59 -35 22 -23 74 17 74 10 0 23 -7 30 -15z"/>
<path d="M2372 2774 c-91 -45 -138 -130 -130 -234 6 -77 46 -144 112 -185 44
-27 58 -30 126 -30 68 0 82 3 126 30 30 19 60 49 79 79 27 44 30 58 30 126 0
68 -3 82 -30 126 -66 106 -202 145 -313 88z m171 -68 c103 -43 128 -177 48
-257 -65 -65 -157 -65 -222 0 -124 123 13 325 174 257z"/>
<path d="M4575 2155 c-5 -2 -22 -6 -37 -9 -35 -8 -94 -59 -115 -100 -20 -37
-21 -131 -3 -166 37 -73 101 -113 180 -113 79 0 143 40 180 113 18 34 17 129
-2 165 -18 33 -62 77 -93 93 -23 11 -95 23 -110 17z m79 -90 c84 -40 87 -160
6 -209 -103 -60 -224 61 -164 163 34 57 96 75 158 46z"/>
<path d="M4323 2055 c-11 -33 -10 -34 24 -46 40 -13 41 -12 49 28 5 27 3 31
-27 42 -17 6 -33 11 -34 11 -1 0 -6 -16 -12 -35z"/>
</g>
</svg>
